<svg width="20" height="21" viewBox="0 0 20 21" fill="none" xmlns="http://www.w3.org/2000/svg">
<g clip-path="url(#clip0_1_310)">
<path d="M11.3501 20H8.14106C7.60504 20 7.16901 19.5639 7.16901 19.0279V11.7896H5.29676C4.76074 11.7896 4.32471 11.3535 4.32471 10.8176V7.71598C4.32471 7.17996 4.76074 6.74393 5.29676 6.74393H7.16901V5.19076C7.16901 3.65073 7.65259 2.34049 8.56731 1.40192C9.48616 0.459073 10.7702 -0.0391846 12.2808 -0.0391846L14.7282 -0.0352095C15.2633 -0.0342922 15.6985 0.40174 15.6985 0.936843V3.81661C15.6985 4.35263 15.2627 4.78867 14.7268 4.78867L13.079 4.78928C12.5765 4.78928 12.4485 4.89003 12.4211 4.92091C12.376 4.97213 12.3224 5.11691 12.3224 5.51671V6.74378H14.603C14.7747 6.74378 14.941 6.78613 15.0839 6.86593C15.3923 7.03824 15.584 7.36404 15.584 7.71614L15.5828 10.8177C15.5828 11.3535 15.1468 11.7895 14.6108 11.7895H12.3224V19.0279C12.3224 19.5639 11.8862 20 11.3501 20ZM8.34379 18.8252H11.1474V11.2637C11.1474 10.9058 11.4387 10.6147 11.7964 10.6147H14.408L14.4091 7.91871H11.7963C11.4385 7.91871 11.1474 7.62761 11.1474 7.26971V5.51671C11.1474 5.05775 11.1941 4.53579 11.5405 4.14348C11.9591 3.66923 12.6188 3.6145 13.0787 3.6145L14.5238 3.61389V1.13926L12.2799 1.1356C9.85232 1.1356 8.34379 2.68953 8.34379 5.19076V7.26971C8.34379 7.62746 8.05269 7.91871 7.69494 7.91871H5.49949V10.6147H7.69494C8.05269 10.6147 8.34379 10.9058 8.34379 11.2637V18.8252ZM14.7259 1.13957H14.726H14.7259Z" fill="#212121"/>
</g>
<defs>
<clipPath id="clip0_1_310">
<rect width="20" height="20.0391" fill="white"/>
</clipPath>
</defs>
</svg>
