<svg width="20" height="20" viewBox="0 0 20 20" fill="none" xmlns="http://www.w3.org/2000/svg">
<g clip-path="url(#clip0_1_315)">
<path d="M10.1968 20C10.1306 20 10.0644 20 9.99771 19.9997C8.43002 20.0035 6.98151 19.9637 5.57281 19.878C4.28131 19.7994 3.10242 19.3531 2.16339 18.5874C1.25732 17.8485 0.63858 16.8495 0.324402 15.6185C0.0509644 14.5467 0.0364685 13.4946 0.022583 12.477C0.0125122 11.7468 0.00213623 10.8817 0 10.0018C0.00213623 9.11836 0.0125122 8.25319 0.022583 7.52305C0.0364685 6.5056 0.0509644 5.4535 0.324402 4.38157C0.63858 3.15049 1.25732 2.1515 2.16339 1.41267C3.10242 0.646978 4.28131 0.200658 5.57297 0.122075C6.98166 0.0364735 8.43048 -0.0035046 10.0015 0.000310103C11.5697 -0.00304683 13.0177 0.0364735 14.4264 0.122075C15.7179 0.200658 16.8968 0.646978 17.8358 1.41267C18.7421 2.1515 19.3607 3.15049 19.6748 4.38157C19.9483 5.45335 19.9628 6.5056 19.9767 7.52305C19.9867 8.25319 19.9973 9.11836 19.9992 9.99819V10.0018C19.9973 10.8817 19.9867 11.7468 19.9767 12.477C19.9628 13.4944 19.9484 14.5465 19.6748 15.6185C19.3607 16.8495 18.7421 17.8485 17.8358 18.5874C16.8968 19.3531 15.7179 19.7994 14.4264 19.878C13.0774 19.9601 11.6916 20 10.1968 20ZM9.99771 18.4372C11.5399 18.4409 12.9559 18.402 14.3315 18.3184C15.3081 18.259 16.1548 17.9421 16.8484 17.3764C17.4896 16.8535 17.9312 16.1321 18.1609 15.2321C18.3885 14.3399 18.4016 13.382 18.4143 12.4556C18.4242 11.7304 18.4346 10.8713 18.4367 10C18.4346 9.12859 18.4242 8.26967 18.4143 7.54442C18.4016 6.61805 18.3885 5.66011 18.1609 4.76777C17.9312 3.86781 17.4896 3.14637 16.8484 2.62345C16.1548 2.05796 15.3081 1.74103 14.3315 1.68168C12.9559 1.59791 11.5399 1.5593 10.0014 1.56266C8.45947 1.559 7.0433 1.59791 5.66772 1.68168C4.69116 1.74103 3.84445 2.05796 3.15079 2.62345C2.50961 3.14637 2.06802 3.86781 1.83838 4.76777C1.61072 5.66011 1.5976 6.6179 1.58493 7.54442C1.57501 8.27028 1.56464 9.12981 1.5625 10.0018C1.56464 10.8701 1.57501 11.7298 1.58493 12.4556C1.5976 13.382 1.61072 14.3399 1.83838 15.2321C2.06802 16.1321 2.50961 16.8535 3.15079 17.3764C3.84445 17.9419 4.69116 18.2588 5.66772 18.3182C7.0433 18.402 8.45978 18.441 9.99771 18.4372ZM9.96048 14.8828C7.26822 14.8828 5.07767 12.6924 5.07767 10C5.07767 7.3076 7.26822 5.1172 9.96048 5.1172C12.6529 5.1172 14.8433 7.3076 14.8433 10C14.8433 12.6924 12.6529 14.8828 9.96048 14.8828ZM9.96048 6.6797C8.12973 6.6797 6.64017 8.16926 6.64017 10C6.64017 11.8308 8.12973 13.3203 9.96048 13.3203C11.7914 13.3203 13.2808 11.8308 13.2808 10C13.2808 8.16926 11.7914 6.6797 9.96048 6.6797ZM15.3902 3.5547C14.743 3.5547 14.2183 4.07929 14.2183 4.72657C14.2183 5.37385 14.743 5.89845 15.3902 5.89845C16.0374 5.89845 16.562 5.37385 16.562 4.72657C16.562 4.07929 16.0374 3.5547 15.3902 3.5547Z" fill="#212121"/>
</g>
<defs>
<clipPath id="clip0_1_315">
<rect width="20" height="20" fill="white"/>
</clipPath>
</defs>
</svg>
