<svg width="23" height="23" viewBox="0 0 23 23" fill="none" xmlns="http://www.w3.org/2000/svg">
<path d="M-3.93055e-06 2.65031C-3.90176e-06 1.99168 0.245815 1.35049 0.692272 0.861053C1.19133 0.313796 1.90255 -9.00343e-07 2.64303 -8.67976e-07L6.19148 -7.12868e-07C7.53813 -6.54004e-07 8.66697 1.00497 8.81707 2.33762C8.90551 3.1219 9.06701 3.90083 9.29704 4.65312C9.58502 5.59465 9.33508 6.60883 8.64459 7.29945L7.20689 8.73729C8.71339 11.4909 11.0095 13.787 13.7626 15.2934L15.2004 13.8554C15.891 13.1649 16.9052 12.915 17.8469 13.2031C18.5992 13.4331 19.3781 13.5946 20.1622 13.6831C21.495 13.833 22.5 14.9619 22.5 16.3085L22.5 19.8568C22.5 20.5974 22.1862 21.3087 21.6389 21.8077C21.0896 22.309 20.349 22.5571 19.6073 22.4889C17.0612 22.2546 14.6029 21.5798 12.3004 20.4831C10.062 19.417 8.03498 17.9843 6.27539 16.2247C4.51593 14.4653 3.08303 12.4382 2.01709 10.1997C0.920513 7.89711 0.24554 5.43878 0.0111197 2.8927C0.00356471 2.81181 -3.93408e-06 2.73106 -3.93055e-06 2.65031ZM7.65651 5.43549C7.65651 5.3465 7.64319 5.256 7.61613 5.16742C7.35438 4.31186 7.17077 3.42609 7.07025 2.53441C7.0204 2.0918 6.6426 1.75781 6.19148 1.75781L2.64303 1.75781C2.39172 1.75781 2.16018 1.86012 1.99099 2.04579C1.81947 2.23352 1.73803 2.47714 1.76165 2.73148C2.64097 12.2859 10.2143 19.859 19.7685 20.7385C20.0229 20.762 20.2665 20.6804 20.4543 20.5091C20.6399 20.3397 20.7422 20.1081 20.7422 19.8568L20.7422 16.3085C20.7422 15.8574 20.4083 15.4796 19.9656 15.4296C19.0739 15.3292 18.1881 15.1456 17.3326 14.884C17.014 14.7865 16.6733 14.8685 16.4434 15.0984L14.1023 17.4394L13.5364 17.1579C10.0083 15.4026 7.09826 12.4921 5.34251 8.96333L5.06071 8.3974L7.40176 6.05649C7.56752 5.89073 7.65651 5.66716 7.65651 5.43549Z" fill="white"/>
</svg>
